HIERARCHY
ROOT Hips
{
	OFFSET 0.000000 0.000000 0.000000 
	CHANNELS 6 Xposition Yposition Zposition Yrotation Zrotation Xrotation 
	JOINT Lumbar
	{
		OFFSET 0.000000 0.000000 0.000000 
		CHANNELS 3 Zrotation Xrotation Yrotation
		JOINT Neck
		{
			OFFSET 0.000000 0.445665 0.000000 
			CHANNELS 3 Zrotation Xrotation Yrotation
			End Site
			{
				OFFSET 0.000000 0.227535 0.000000 
			}
		}
		JOINT RightShoulder
		{
			OFFSET 0.019635 0.377685 0.194865 
			CHANNELS 3 Zrotation Xrotation Yrotation
			JOINT RightElbow
			{
				OFFSET 0.000000 -0.243375 0.000000 
				CHANNELS 2 Zrotation Yrotation
				JOINT RightWrist
				{
					OFFSET 0.000000 -0.264825 0.000000 
					CHANNELS 2 Zrotation Xrotation
					End Site
					{
						OFFSET 0.006600 -0.176220 0.000990 
					}
				}
			}
		}
		JOINT LeftShoulder
		{
			OFFSET 0.019635 0.377685 -0.194865 
			CHANNELS 3 Zrotation Xrotation Yrotation
			JOINT LeftElbow
			{
				OFFSET 0.000000 -0.243375 0.000000 
				CHANNELS 2 Zrotation Yrotation
				JOINT LeftWrist
				{
					OFFSET 0.000000 -0.264825 0.000000 
					CHANNELS 2 Zrotation Xrotation
					End Site
					{
						OFFSET 0.006600 -0.176220 -0.000990 
					}
				}
			}
		}
	}
	JOINT RightHip
	{
		OFFSET 0.052140 -0.069960 0.075570 
		CHANNELS 3 Zrotation Xrotation Yrotation
		JOINT RightKnee
		{
			OFFSET 0.000000 -0.402270 0.000000 
			CHANNELS 1 Zrotation
			JOINT RightAnkle
			{
				OFFSET 0.000000 -0.404085 0.000000 
				CHANNELS 3 Zrotation Xrotation Yrotation
				End Site
				{
					OFFSET 0.204105 -0.089430 0.008415 
				}
			}
		}
	}
	JOINT LeftHip
	{
		OFFSET 0.052140 -0.069960 -0.075570 
		CHANNELS 3 Zrotation Xrotation Yrotation
		JOINT LeftKnee
		{
			OFFSET 0.000000 -0.402270 0.000000 
			CHANNELS 1 Zrotation
			JOINT LeftAnkle
			{
				OFFSET 0.000000 -0.404085 0.000000 
				CHANNELS 3 Zrotation Xrotation Yrotation
				End Site
				{
					OFFSET 0.204105 -0.089430 -0.008415 
				}
			}
		}
	}
}
MOTION
Frames: 32
Frame Time: 0.02
0 0.95578 -0 144.94027 0 -4.63899 8.18932 5.71189 -4.95413 -41.2132 2.5662 -0.84317 34.81395 -15.27379 -3.04626 10.10488 86.60538 -2.80764 -3.44383 33.75015 12.93124 -17.3154 10.44888 -80.79118 -3.80763 2.79603 -7.70362 5.38882 4.57185 -8.99515 -9.73373 -2.49474 -9.69897 -8.43385 4.14707 17.74913 -2.22211 -4.07336 3.62904 8.39359
-0.00102 0.95552 0.00031 144.82438 0 -4.6453 8.1686 5.74477 -4.87465 -41.21158 2.55915 -0.74145 34.72834 -15.40086 -3.14896 10.05966 86.07785 -2.76745 -3.44016 33.52795 12.84249 -17.03203 10.33049 -80.70803 -3.76057 2.76336 -7.7654 5.30373 5.02986 -8.93904 -9.70586 -2.55577 -9.71097 -8.28135 4.13047 17.64913 -2.65997 -3.76114 3.74991 8.66692
-0.00205 0.95526 0.00062 144.70624 0 -4.65185 8.14781 5.77887 -4.79468 -41.21023 2.55122 -0.64017 34.64381 -15.52767 -3.25164 10.0146 85.55313 -2.7274 -3.43642 33.30702 12.75386 -16.75087 10.21263 -80.62562 -3.7136 2.73064 -7.82597 5.21842 5.48775 -8.88465 -9.67764 -2.61635 -9.72311 -8.13001 4.11312 17.55067 -3.09616 -3.44986 3.87024 8.94029
-0.0031 0.955 0.00096 144.58042 0 -4.65928 8.12744 5.81704 -4.71187 -41.21028 2.53954 -0.53874 34.56139 -15.65412 -3.35593 9.96918 85.03519 -2.68733 -3.4318 33.08916 12.66505 -16.47351 10.09561 -80.54552 -3.66648 2.69748 -7.88479 5.13186 5.94631 -8.83208 -9.64881 -2.67533 -9.73495 -7.98012 4.09387 17.45475 -3.53243 -3.13872 3.98979 9.21762
-0.004 0.95474 0.00118 144.49821 0 -4.66188 8.10595 5.83231 -4.64392 -41.20332 2.54752 -0.43697 34.46611 -15.78181 -3.45259 9.925 84.48213 -2.64713 -3.43116 32.85519 12.57742 -16.17324 9.97399 -80.45334 -3.62007 2.6667 -7.9559 5.05243 6.39725 -8.76431 -9.62448 -2.74233 -9.74721 -7.82054 4.08621 17.34222 -3.97131 -2.82615 4.11372 9.47533
-0.00524 0.95447 0.00165 144.32185 0 -4.67481 8.08607 5.89688 -4.54476 -41.21094 2.51406 -0.33678 34.39926 -15.9072 -3.56468 9.8787 84.00338 -2.60741 -3.42258 32.65545 12.48727 -15.92363 9.86232 -80.3867 -3.57224 2.6309 -7.99888 4.95769 6.86663 -8.73254 -9.58982 -2.79261 -9.75939 -7.68297 4.05299 17.26706 -4.40217 -2.51735 4.2281 9.77334
-0.00743 0.95413 0.00276 143.88788 0 -4.71653 8.07648 6.09668 -4.35251 -41.2624 2.36024 -0.23196 34.40252 -16.0258 -3.72847 9.8213 83.72842 -2.56672 -3.38705 32.54909 12.3885 -15.79677 9.77545 -80.39229 -3.5188 2.5802 -7.97865 4.81953 7.37929 -8.77392 -9.53134 -2.79362 -9.76526 -7.59298 3.95458 17.27854 -4.83908 -2.20717 4.31979 10.20295
-0.00998 0.95377 0.00413 143.35813 0 -4.76864 8.06718 6.34631 -4.13011 -41.32788 2.16581 -0.13025 34.43612 -16.14228 -3.90586 9.76279 83.52851 -2.52694 -3.34449 32.47759 12.28753 -15.72446 9.69915 -80.42339 -3.46423 2.52475 -7.9264 4.66638 7.91289 -8.85836 -9.46135 -2.77831 -9.77249 -7.52754 3.82932 17.33049 -5.26304 -1.90265 4.40126 10.66983
-0.01238 0.95342 0.00541 142.86977 0 -4.81589 8.05425 6.5744 -3.92531 -41.38482 1.99322 -0.03286 34.46121 -16.26018 -4.07199 9.70797 83.29474 -2.48809 -3.30824 32.39053 12.18836 -15.63772 9.61947 -80.44169 -3.41114 2.47187 -7.88059 4.52012 8.44212 -8.93788 -9.39363 -2.77251 -9.78273 -7.45929 3.71261 17.37517 -5.67532 -1.60279 4.48513 11.10718
-0.01471 0.95306 0.00658 142.38962 0 -4.86384 8.05715 6.79915 -3.70276 -41.45134 1.80509 0.08866 34.46366 -16.3762 -4.26161 9.63921 83.05964 -2.44335 -3.25845 32.3015 12.0853 -15.50566 9.53325 -80.46496 -3.35373 2.41655 -7.87292 4.37185 8.94815 -8.94798 -9.33897 -2.75792 -9.77646 -7.35574 3.61109 17.37426 -6.16229 -1.27231 4.57846 11.59825
-0.01727 0.95271 0.00803 141.87073 0 -4.91264 8.0258 7.04102 -3.51171 -41.50071 1.64131 0.15927 34.52092 -16.49554 -4.40294 9.59987 82.84556 -2.41138 -3.23568 32.22585 11.99047 -15.48295 9.46382 -80.48407 -3.30535 2.36605 -7.77331 4.22637 9.50922 -9.12241 -9.2537 -2.75771 -9.80637 -7.33167 3.47187 17.47623 -6.48982 -1.00711 4.64965 11.98552
-0.02043 0.9524 0.0102 141.2588 0 -4.96279 7.91115 7.33213 -3.40072 -41.50388 1.54078 0.08933 34.71809 -16.62504 -4.42937 9.63616 82.66752 -2.41217 -3.28523 32.17051 11.91375 -15.73074 9.43256 -80.48447 -3.27925 2.32232 -7.46827 4.07341 10.19956 -9.65997 -9.093 -2.80155 -9.92054 -7.51989 3.23256 17.86628 -6.38761 -0.91931 4.6624 12.08438
-0.02381 0.95208 0.01263 140.61314 0 -5.01322 7.75977 7.6359 -3.32526 -41.4886 1.46878 -0.0315 34.96996 -16.75764 -4.40235 9.70312 82.50882 -2.42623 -3.36297 32.12926 11.84662 -16.08933 9.41885 -80.47999 -3.26264 2.28489 -7.06339 3.92709 10.94579 -10.37706 -8.90108 -2.86025 -10.07199 -7.78733 2.95691 18.35549 -6.12426 -0.89733 4.65318 12.07665
-0.02705 0.95176 0.01493 139.98892 0 -5.06241 7.61795 7.92487 -3.24278 -41.47853 1.39283 -0.12868 35.1996 -16.88879 -4.38596 9.75994 82.34352 -2.43571 -3.43045 32.08647 11.77819 -16.41002 9.40085 -80.47844 -3.24382 2.24981 -6.67869 3.79031 11.68065 -11.06364 -8.71887 -2.91203 -10.21889 -8.01946 2.69934 18.79065 -5.92959 -0.84607 4.65389 12.11227
-0.03048 0.95147 0.0173 139.33481 0 -5.11637 7.50678 8.25462 -3.12027 -41.4817 1.27731 -0.22863 35.41979 -17.02097 -4.42907 9.80091 82.17118 -2.43907 -3.48693 32.02305 11.69571 -16.68314 9.36783 -80.47483 -3.21681 2.19315 -6.40274 3.60078 12.36559 -11.53333 -8.5537 -2.96436 -10.32152 -8.25011 2.43346 19.26666 -5.75277 -0.79204 4.6545 12.16858
-0.03356 0.95112 0.01958 138.73711 0 -5.16071 7.32238 8.50072 -3.09054 -41.45356 1.25162 -0.33431 35.67149 -17.1506 -4.33369 9.88189 82.01766 -2.45833 -3.5731 32.00713 11.64613 -17.07706 9.3699 -80.47393 -3.20821 2.18223 -5.8726 3.52192 13.15674 -12.50028 -8.34761 -3.0188 -10.51516 -8.5016 2.17758 19.67872 -5.5018 -0.75973 4.65021 12.15865
-0.03567 0.95059 0.02165 138.2972 0 -5.1752 6.95055 8.52183 -3.30315 -41.33715 1.46623 -0.4478 36.00282 -17.28226 -3.8838 10.06812 81.90646 -2.51813 -3.73405 32.1062 11.674 -17.8091 9.46659 -80.48215 -3.25632 2.30317 -4.70444 3.75525 14.32126 -14.76117 -8.02076 -3.07963 -11.04019 -8.79732 1.95057 19.9067 -5.07609 -0.7677 4.63807 11.9677
-0.03742 0.95001 0.02363 137.91759 0 -5.18078 6.5054 8.45659 -3.60874 -41.19154 1.77052 -0.56441 36.3624 -17.40939 -3.29394 10.29288 81.81405 -2.59349 -3.92372 32.25578 11.73682 -18.65176 9.59759 -80.49291 -3.32138 2.46884 -3.27825 4.09806 15.57422 -17.51824 -7.65698 -3.1414 -11.64108 -9.10998 1.73689 20.06412 -4.58339 -0.79577 4.62175 11.71725
-0.03931 0.94947 0.0256 137.51408 0 -5.19216 6.08971 8.42438 -3.87565 -41.06268 2.03455 -0.67673 36.70533 -17.53218 -2.75786 10.49889 81.71595 -2.66186 -4.10081 32.38917 11.79075 -19.42395 9.7115 -80.50225 -3.37297 2.60918 -1.94246 4.38564 16.72374 -20.07662 -7.31992 -3.20002 -12.14593 -9.41081 1.5217 20.24198 -4.12727 -0.81714 4.6072 11.5108
-0.04132 0.94887 0.02776 137.09167 0 -5.19515 5.68816 8.41798 -4.12983 -40.91622 2.29777 -0.80317 37.06749 -17.68219 -2.25977 10.71234 81.6067 -2.73045 -4.27797 32.49047 11.81505 -20.28919 9.83226 -80.51312 -3.44811 2.77002 -0.71018 4.69732 18.13777 -22.54625 -6.93875 -3.27054 -12.90293 -9.732 1.28422 20.4702 -3.63853 -0.83107 4.59243 11.23257
-0.04299 0.94839 0.0295 136.727 0 -5.21477 5.24131 8.33827 -4.4307 -40.80259 2.58321 -0.90001 37.39405 -17.77426 -1.6521 10.91761 81.52467 -2.80197 -4.46007 32.67548 11.90981 -20.98058 9.94678 -80.52078 -3.47953 2.89975 0.78962 4.98379 19.02675 -25.29349 -6.64243 -3.31644 -13.16363 -10.0136 1.09905 20.57824 -3.20528 -0.8637 4.5774 11.08671
-0.04374 0.94817 0.03021 136.47681 0 -5.27082 4.67793 8.06676 -4.84937 -40.76172 2.91079 -0.91619 37.62751 -17.70811 -0.75832 11.10257 81.51506 -2.87843 -4.6601 33.03569 12.18594 -21.20669 10.03559 -80.52557 -3.37411 2.9245 3.03253 5.18098 18.39615 -28.87665 -6.57954 -3.29269 -11.93778 -10.18291 1.03579 20.34573 -2.93099 -0.94888 4.56304 11.36018
-0.04416 0.94808 0.03046 136.28856 0 -5.34561 4.07328 7.72606 -5.30901 -40.75931 3.25653 -0.90172 37.82104 -17.5835 0.23731 11.27542 81.53178 -2.95692 -4.8616 33.4863 12.53264 -21.24638 10.11755 -80.52637 -3.22659 2.91844 5.52179 5.34704 17.24339 -32.68315 -6.60618 -3.24412 -10.22815 -10.31129 1.02812 19.99795 -2.71762 -1.05078 4.54867 11.76293
-0.04478 0.94796 0.03086 136.0918 0 -5.42007 3.494 7.42415 -5.74268 -40.75622 3.59262 -0.90001 38.02538 -17.48539 1.17441 11.44625 81.53512 -3.03421 -5.05514 33.92427 12.84999 -21.34246 10.20176 -80.52399 -3.10578 2.93108 7.85455 5.52339 16.36015 -36.26445 -6.59738 -3.20807 -8.80347 -10.4571 1.00836 19.72091 -2.48426 -1.14079 4.53409 12.08027
-0.04518 0.94772 0.03154 135.81383 0 -5.46162 2.88472 7.08925 -6.21252 -40.68257 3.93962 -0.90396 38.26413 -17.38802 2.16819 11.65105 81.54504 -3.114 -5.28145 34.24464 13.15695 -21.55903 10.28806 -80.54056 -2.95237 2.92319 10.38794 5.72233 15.34148 -40.39529 -6.56156 -3.16769 -7.10556 -10.60802 0.93503 19.36856 -2.21619 -1.24949 4.52 12.50474
-0.04597 0.94776 0.0315 135.71944 0 -5.57382 2.32847 6.80645 -6.61321 -40.76367 4.26469 -0.88806 38.41833 -17.27449 3.06617 11.78066 81.54734 -3.1879 -5.43827 34.82989 13.50204 -21.48272 10.37141 -80.51949 -2.85814 2.95298 12.55417 5.8623 14.4829 -43.41573 -6.6082 -3.12934 -5.86222 -10.73894 0.98427 19.14087 -2.03548 -1.32316 4.50525 12.74168
-0.0479 0.94862 0.02966 136.11291 0 -5.89763 1.93481 6.69627 -6.83234 -41.27887 4.54459 -0.83099 38.37525 -17.13818 3.6758 11.71478 81.52153 -3.25312 -5.41293 36.13214 13.93265 -20.61096 10.41882 -80.37775 -2.9275 3.06926 13.68164 5.87306 14.16113 -43.41777 -6.82101 -3.11235 -5.9768 -10.8193 1.37614 19.33498 -2.08482 -1.2939 4.48609 12.39334
-0.05025 0.94974 0.02709 136.68966 0 -6.28781 1.59545 6.63917 -6.97633 -41.94623 4.79777 -0.7537 38.24406 -16.9867 4.18534 11.57198 81.48723 -3.31067 -5.3156 37.69624 14.39909 -19.45722 10.46909 -80.20603 -3.06146 3.22842 14.42272 5.8201 14.02049 -42.27348 -7.11984 -3.09683 -6.56525 -10.88183 1.88609 19.64982 -2.21993 -1.22894 4.46676 11.85827
-0.05242 0.95069 0.0248 137.18454 0 -6.63409 1.2273 6.55043 -7.14161 -42.53267 5.0496 -0.68176 38.13488 -16.83662 4.73831 11.45794 81.4571 -3.3665 -5.24441 39.13501 14.85109 -18.45206 10.5369 -80.05395 -3.17015 3.38494 15.3168 5.77878 13.82279 -41.58367 -7.40731 -3.07382 -6.95024 -10.95591 2.33021 19.87707 -2.3133 -1.1818 4.44925 11.43314
-0.05452 0.95185 0.02271 137.67477 0 -7.03984 0.87393 6.49082 -7.36293 -43.1676 5.35859 -0.62548 38.09767 -16.70575 5.30053 11.36874 81.4264 -3.44477 -5.20091 40.60327 15.29939 -17.35057 10.52392 -79.85795 -3.25286 3.47168 16.31703 5.80978 13.51546 -41.18053 -7.58677 -3.07721 -7.27985 -11.01401 2.82749 20.23757 -2.41916 -1.12916 4.42444 10.90875
-0.05688 0.95263 0.02002 138.21846 0 -7.33623 0.5046 6.38421 -7.4488 -43.74035 5.54254 -0.53156 37.89367 -16.53448 5.82221 11.21084 81.39475 -3.47397 -5.08279 42.07163 15.76094 -16.38976 10.68126 -79.76941 -3.4147 3.71134 16.9987 5.67515 13.46726 -39.90773 -8.003 -3.02821 -7.82901 -11.10171 3.24155 20.35175 -2.52017 -1.07846 4.41471 10.54239
-0.0598 0.95232 0.01602 138.85623 0 -7.32318 0.06668 6.13462 -7.18167 -44.07611 5.38261 -0.34386 37.22002 -16.23573 6.22176 10.87316 81.36057 -3.37408 -4.77534 43.4697 16.26743 -15.84827 11.29798 -79.78278 -3.70147 4.38821 16.91526 5.10222 14.26169 -36.49395 -9.11729 -2.81719 -9.00065 -11.27531 3.3958 19.74697 -2.5739 -1.04867 4.44754 10.68144
